<svg xmlns="http://www.w3.org/2000/svg" width="142" height="182" viewBox="0 0 142 182" fill="none"><path d="M101.278 92.3819C111.731 93.8166 120.441 98.1206 127.41 105.294C134.583 112.467 138.17 121.485 138.17 132.348C138.17 142.801 134.993 151.716 128.64 159.095C122.286 166.473 113.678 172.109 102.815 176.003C92.1576 179.693 80.4752 181.537 67.768 181.537C45.428 181.537 28.6217 177.643 17.3492 169.855C6.28163 162.066 0.747856 152.331 0.747856 140.649C0.747856 133.885 2.38749 128.659 5.66677 124.97C8.94604 121.076 13.3526 119.128 18.8863 119.128C23.6003 119.128 27.0845 120.358 29.339 122.818C31.7985 125.072 33.848 129.069 35.4877 134.808C36.9223 140.341 39.8942 144.543 44.4032 147.412C48.9122 150.282 55.8806 151.716 65.3086 151.716C74.3266 151.716 81.7049 150.077 87.4436 146.797C93.3873 143.313 96.3592 138.087 96.3592 131.118C96.3592 123.945 93.5923 118.719 88.0585 115.439C82.5247 111.955 73.9167 110.008 62.2342 109.598C57.9302 109.393 54.6509 107.958 52.3964 105.294C50.3469 102.425 49.3221 99.0429 49.3221 95.1488C49.3221 90.2299 50.1419 86.7457 51.7816 84.6961C53.6261 82.4416 56.7005 80.9045 61.0045 80.0846C74.5315 78.0351 84.2669 74.141 90.2105 68.4022C96.3592 62.4585 99.4335 55.3876 99.4335 47.1894C99.4335 35.9169 91.6452 30.2807 76.0687 30.2807C58.8525 30.2807 48.7072 37.0442 45.6329 50.5712C44.1982 56.1049 42.0462 60.1016 39.1768 62.561C36.5124 64.8155 32.7208 65.9428 27.8019 65.9428C22.2681 65.9428 17.964 64.4056 14.8897 61.3313C12.0204 58.052 10.5857 53.748 10.5857 48.4191C10.5857 40.221 13.455 32.4327 19.1938 25.0543C24.9325 17.676 33.0282 11.7323 43.4809 7.22327C54.1385 2.71427 66.5383 0.459764 80.6802 0.459764C100.356 0.459764 115.42 4.25142 125.873 11.8347C136.325 19.4181 141.552 30.6906 141.552 45.6523C141.552 55.4901 137.76 64.713 130.177 73.3211C122.798 81.7243 113.165 88.0779 101.278 92.3819Z" fill="#ffffff"></path></svg>