<svg xmlns="http://www.w3.org/2000/svg" width="155" height="185" viewBox="0 0 155 185" fill="none"><path d="M138.692 110.828C149.554 110.828 154.985 115.439 154.985 124.662C154.985 132.041 152.936 137.164 148.837 140.034C144.738 142.903 138.282 144.338 129.469 144.338H123.013L121.783 160.632C121.168 170.06 119.118 176.413 115.634 179.693C112.355 182.972 106.924 184.611 99.3403 184.611C88.4777 184.611 83.0464 177.95 83.0464 164.628C83.0464 162.374 83.1489 160.632 83.3539 159.402L84.891 144.338C55.1726 144.338 32.6276 144.235 17.256 144.03C12.747 144.03 8.75038 141.981 5.26616 137.882C1.78193 133.783 0.0398117 128.454 0.0398117 121.895C0.0398117 118.001 0.757153 113.902 2.19184 109.598C11.2098 83.3639 24.7368 53.543 42.7728 20.1354C46.667 12.962 50.5611 7.94062 54.4553 5.07126C58.5543 1.99693 64.8055 0.459764 73.2086 0.459764C77.7176 0.459764 81.0994 1.48454 83.3539 3.5341C85.8133 5.58364 87.043 8.24805 87.043 11.5273C87.043 15.0115 86.0183 18.4958 83.9687 21.98C63.8832 58.6669 49.7413 88.2828 41.5431 110.828H88.8876C91.3471 91.767 94.7288 73.6286 99.0329 56.4124C100.673 50.0588 103.337 45.2423 107.026 41.9631C110.715 38.4788 115.839 36.7367 122.398 36.7367C132.85 36.7367 138.077 41.2457 138.077 50.2637C138.077 52.9282 137.872 54.9777 137.462 56.4124C133.773 73.8335 130.493 91.972 127.624 110.828H138.692Z" fill="#ffffff"></path></svg>