<svg xmlns="http://www.w3.org/2000/svg" width="147" height="183" viewBox="0 0 147 183" fill="none"><path d="M132.823 145.568C137.127 145.568 140.406 147.002 142.661 149.872C144.915 152.741 146.042 156.328 146.042 160.632C146.042 165.961 144.3 170.777 140.816 175.081C137.537 179.18 133.028 181.23 127.289 181.23C117.451 181.23 102.797 180.512 83.3262 179.078C79.432 178.873 72.2586 178.463 61.8059 177.848C51.3533 177.233 43.1551 176.926 37.2114 176.926C34.547 176.926 30.6528 177.848 25.529 179.693C24.5042 179.898 22.4547 180.41 19.3803 181.23C16.511 182.05 14.0515 182.459 12.002 182.459C8.7227 182.459 5.95581 181.025 3.70131 178.155C1.65176 175.081 0.626991 170.572 0.626991 164.628C0.626991 158.07 2.16415 153.048 5.23847 149.564C8.31279 145.875 13.1292 142.596 19.6878 139.726C33.6247 133.578 46.7418 125.79 59.0391 116.362C71.5413 106.729 81.4816 96.3785 88.8599 85.311C96.4433 74.2434 100.235 63.6883 100.235 53.6455C100.235 45.6523 98.3903 39.8111 94.7012 36.1219C91.2169 32.2277 85.5807 30.2807 77.7924 30.2807C68.7744 30.2807 61.4985 32.7401 55.9647 37.659C50.6359 42.5779 47.9715 49.4439 47.9715 58.257C47.9715 70.3493 41.9253 76.3955 29.833 76.3955C24.0943 76.3955 19.5853 74.7558 16.306 71.4765C13.2317 68.1973 11.6945 63.4833 11.6945 57.3347C11.6945 47.0869 14.3589 37.659 19.6878 29.0509C25.0166 20.4428 33.0098 13.5769 43.6675 8.453C54.3251 3.12418 67.3397 0.459764 82.7113 0.459764C101.157 0.459764 115.607 5.07124 126.059 14.2942C136.512 23.5172 141.738 36.3268 141.738 52.7232C141.738 68.2997 134.872 84.5936 121.14 101.605C107.613 118.616 88.0401 133.68 62.4208 146.797L132.823 145.568Z" fill="#ffffff"></path></svg>