<svg xmlns="http://www.w3.org/2000/svg" width="85" height="182" viewBox="0 0 85 182" fill="none"><path d="M43.4631 181.537C38.3392 181.537 33.8302 180 29.9361 176.926C26.0419 173.851 24.0949 169.035 24.0949 162.476L24.4023 159.095C26.6568 137.984 29.3212 116.054 32.3955 93.3042C35.6748 70.3493 38.4417 52.7232 40.6962 40.4259L16.7165 47.1894L13.0273 47.8043C9.13317 47.8043 6.05885 46.2671 3.80435 43.1928C1.54985 40.1185 0.422596 36.6343 0.422596 32.7401L0.730028 29.9732C1.13994 26.0791 2.36967 22.9023 4.41921 20.4428C6.46876 17.9834 10.3629 15.5239 16.1016 13.0645C22.0453 10.605 30.8584 7.94062 42.5408 5.07126L55.4529 1.99692C60.1669 0.97215 64.061 0.459764 67.1353 0.459764C73.079 0.459764 77.4855 1.99693 80.3549 5.07126C83.4292 8.14557 84.9664 12.4496 84.9664 17.9834C84.9664 20.4428 84.6589 23.1072 84.0441 25.9766C80.7648 41.9631 74.5137 87.463 65.2907 162.476C63.6511 175.184 56.3752 181.537 43.4631 181.537Z" fill="#ffffff"></path></svg>