<svg xmlns="http://www.w3.org/2000/svg" width="817" height="776" viewBox="0 0 817 776" fill="none"><mask id="mask0_63_150" style="mask-type:luminance" maskUnits="userSpaceOnUse" x="0" y="0" width="817" height="776"><path d="M11.7979 775.028L0.000146534 12.4527L804.904 0.000107239L816.702 762.576L11.7979 775.028Z" fill="white"></path></mask><g mask="url(#mask0_63_150)"><path fill-rule="evenodd" clip-rule="evenodd" d="M795.288 726.178C789.632 723.25 784.361 719.893 779.459 716.187C777.915 715.024 777.626 712.819 778.748 711.318C779.912 709.768 782.075 709.479 783.619 710.648C788.22 714.098 793.196 717.251 798.506 720.055C798.631 720.094 798.763 720.181 798.889 720.221C800.601 721.127 801.227 723.2 800.362 724.912C799.498 726.623 797.383 727.292 795.713 726.385C795.587 726.345 795.456 726.259 795.288 726.178ZM760.93 698.935C756.868 694.326 753.058 689.415 749.535 684.251C748.448 682.694 748.841 680.521 750.398 679.435C751.949 678.353 754.122 678.741 755.209 680.298C758.64 685.256 762.238 689.914 766.172 694.354C766.257 694.436 766.342 694.565 766.427 694.688C767.684 696.112 767.587 698.28 766.123 699.579C764.699 700.83 762.53 700.697 761.237 699.269C761.147 699.146 761.062 699.064 760.93 698.935ZM736.551 662.876C733.708 657.523 730.946 652.05 728.312 646.439C727.519 644.711 728.253 642.663 729.98 641.829C731.713 641.037 733.761 641.771 734.595 643.498C737.185 648.979 739.858 654.371 742.658 659.594C742.743 659.723 742.787 659.847 742.877 659.976C743.794 661.66 743.144 663.748 741.46 664.67C739.776 665.587 737.688 664.937 736.766 663.253C736.68 663.129 736.637 663 736.551 662.876ZM718.238 623.873C715.859 618.305 713.476 612.696 711.097 607.086C710.35 605.311 711.168 603.303 712.938 602.552C714.708 601.805 716.721 602.623 717.467 604.393C719.845 609.961 722.229 615.576 724.608 621.144L724.785 621.522C725.532 623.297 724.714 625.305 722.944 626.056C721.211 626.843 719.162 626.026 718.415 624.256L718.238 623.873ZM701.321 584.599C698.814 579.116 696.223 573.635 693.552 568.285C692.676 566.559 693.409 564.464 695.095 563.63C696.821 562.755 698.915 563.446 699.749 565.173C702.464 570.611 705.096 576.133 707.605 581.741C707.691 581.87 707.734 581.994 707.783 582.124C708.571 583.893 707.795 585.942 706.068 586.734C704.34 587.527 702.291 586.709 701.498 584.982C701.413 584.853 701.364 584.729 701.321 584.599ZM681.84 546.932C678.703 541.845 675.444 536.884 671.885 532.053C670.756 530.503 671.108 528.331 672.659 527.202C674.173 526.075 676.34 526.421 677.514 527.935C681.154 532.931 684.547 538.061 687.775 543.361C687.818 543.444 687.903 543.573 687.988 543.696C688.993 545.337 688.474 547.47 686.833 548.47C685.192 549.475 683.059 548.955 682.059 547.314C681.974 547.186 681.93 547.061 681.84 546.932ZM656.312 513.693C652.216 509.511 647.821 505.547 643.091 501.839C641.588 500.633 641.341 498.47 642.505 496.962C643.674 495.459 645.879 495.212 647.382 496.381C652.328 500.295 656.935 504.427 661.248 508.819C661.379 508.901 661.465 509.029 661.591 509.111C662.93 510.491 662.881 512.701 661.542 514.039C660.162 515.379 657.952 515.324 656.614 513.985C656.528 513.862 656.444 513.78 656.312 513.693ZM623.016 488.731C622.801 488.646 622.585 488.524 622.412 488.397C617.276 485.715 612.102 483.29 606.844 481.121C605.093 480.388 604.254 478.359 604.987 476.566C605.726 474.815 607.754 473.976 609.506 474.709C614.973 476.964 620.321 479.511 625.63 482.279C625.845 482.4 626.061 482.522 626.276 482.607C626.402 482.689 626.533 482.77 626.659 482.815C628.33 483.721 628.956 485.837 628.091 487.507C627.185 489.219 625.07 489.845 623.399 488.934C623.273 488.852 623.142 488.813 623.016 488.731ZM583.999 473.151C578.239 471.5 572.444 470.016 566.56 468.795C564.689 468.397 563.514 466.545 563.907 464.674C564.306 462.798 566.152 461.582 567.987 462.017C574.038 463.283 580.004 464.763 585.891 466.454C586.063 466.498 586.189 466.538 586.32 466.577C588.152 467.143 589.203 469.08 588.678 470.87C588.155 472.748 586.218 473.799 584.381 473.275C584.256 473.235 584.125 473.196 583.999 473.151ZM542.545 464.666C536.631 463.82 530.63 463.147 524.595 462.605C522.722 462.42 521.295 460.744 521.479 458.83C521.663 456.915 523.339 455.535 525.249 455.714C531.378 456.259 537.456 456.926 543.501 457.77C543.626 457.768 543.799 457.807 543.929 457.805C545.798 458.073 547.143 459.834 546.876 461.75C546.65 463.623 544.889 464.968 542.973 464.701C542.843 464.703 542.717 464.663 542.545 464.666ZM500.19 460.904C494.153 460.57 488.123 460.325 482.088 460.121C480.174 460.021 478.665 458.434 478.719 456.522C478.773 454.609 480.406 453.094 482.319 453.195C488.396 453.398 494.473 453.643 500.551 453.934L500.974 453.969C502.887 454.064 504.355 455.698 504.26 457.611C504.159 459.525 502.525 460.993 500.617 460.897L500.19 460.904ZM457.485 459.398C451.409 459.236 445.338 459.075 439.262 458.914C437.349 458.86 435.839 457.227 435.935 455.314C435.989 453.443 437.581 451.934 439.493 451.988C445.528 452.149 451.604 452.311 457.675 452.472L458.102 452.465C460.014 452.519 461.523 454.111 461.47 456.023C461.416 457.936 459.825 459.486 457.913 459.433L457.485 459.398ZM414.613 457.936C408.493 457.608 402.371 457.193 396.332 456.692C394.423 456.55 392.991 454.874 393.175 452.959C393.317 451.046 394.993 449.618 396.907 449.802C402.859 450.304 408.896 450.679 414.975 451.007L415.397 451.001C417.31 451.101 418.778 452.735 418.683 454.648C418.582 456.556 416.949 458.03 415.04 457.929L414.613 457.936ZM371.662 454.016C365.534 453.173 359.486 452.163 353.525 450.984C351.648 450.586 350.428 448.782 350.784 446.906C351.135 445.031 352.986 443.773 354.862 444.166C360.699 445.351 366.657 446.322 372.614 447.162C372.744 447.16 372.916 447.199 373.041 447.197C374.957 447.465 376.261 449.231 375.988 451.147C375.72 453.016 374.001 454.36 372.085 454.093C371.96 454.053 371.788 454.056 371.662 454.016ZM329.309 444.946C323.373 443.127 317.57 441.091 311.841 438.758C310.09 438.024 309.209 435.996 309.948 434.245C310.639 432.452 312.663 431.614 314.46 432.305C319.975 434.558 325.611 436.549 331.326 438.289C331.456 438.329 331.582 438.369 331.713 438.408C333.545 438.974 334.596 440.911 334.03 442.748C333.507 444.585 331.569 445.63 329.732 445.065C329.565 445.026 329.434 444.986 329.309 444.946ZM289.293 427.725C284.021 424.665 278.827 421.308 273.759 417.563C272.215 416.441 271.885 414.279 273.007 412.735C274.17 411.186 276.332 410.856 277.876 411.978C282.734 415.554 287.706 418.79 292.763 421.769C292.894 421.809 293.021 421.896 293.152 421.977C294.823 422.925 295.366 425.042 294.413 426.713C293.464 428.343 291.348 428.928 289.677 427.974C289.545 427.893 289.419 427.811 289.293 427.725ZM254.691 401.252C250.422 396.989 246.236 392.423 242.207 387.516C240.996 386.05 241.217 383.838 242.683 382.628C244.154 381.412 246.366 381.633 247.577 383.104C251.473 387.842 255.448 392.239 259.585 396.337C259.675 396.419 259.759 396.501 259.886 396.629C261.225 397.968 261.259 400.176 259.92 401.509C258.582 402.89 256.373 402.882 254.998 401.544C254.908 401.462 254.781 401.339 254.691 401.252ZM227.456 367.362C224.062 362.148 220.922 356.842 217.954 351.538C217.038 349.854 217.64 347.719 219.324 346.803C221.008 345.886 223.101 346.489 224.018 348.173C226.9 353.353 229.954 358.489 233.256 363.532C233.347 363.661 233.432 363.784 233.518 363.913C234.563 365.507 234.086 367.639 232.529 368.726C230.894 369.772 228.762 369.295 227.716 367.696C227.631 367.567 227.546 367.485 227.456 367.362ZM206.951 329.159C204.483 323.509 202.186 317.809 200.06 312.065C199.392 310.294 200.34 308.279 202.112 307.616C203.93 306.953 205.939 307.854 206.602 309.672C208.643 315.287 210.896 320.857 213.278 326.383C213.364 326.512 213.407 326.637 213.451 326.766C214.244 328.535 213.427 330.585 211.699 331.335C209.923 332.087 207.875 331.311 207.123 329.536C207.08 329.412 206.994 329.283 206.951 329.159ZM192.304 288.49C190.557 282.61 188.939 276.691 187.446 270.771C186.991 268.95 188.107 267.021 189.97 266.57C191.833 266.114 193.715 267.231 194.171 269.094C195.663 274.931 197.237 280.725 198.941 286.517C198.985 286.647 199.028 286.771 199.078 286.942C199.611 288.757 198.537 290.685 196.722 291.224C194.903 291.804 192.974 290.73 192.394 288.91C192.392 288.744 192.348 288.614 192.304 288.49ZM181.849 246.693C180.611 240.722 179.373 234.756 178.218 228.784C177.85 226.919 179.051 225.078 180.957 224.71C182.821 224.337 184.664 225.585 185.031 227.449C186.185 233.375 187.381 239.3 188.661 245.228L188.756 245.649C189.123 247.513 187.964 249.359 186.059 249.769C184.195 250.178 182.353 248.977 181.939 247.114L181.849 246.693ZM173.592 204.566C172.443 198.594 171.329 192.62 170.175 186.695C169.807 184.831 171.055 182.988 172.915 182.662C174.779 182.29 176.626 183.496 176.994 185.402C178.149 191.327 179.257 197.3 180.412 203.268L180.502 203.735C180.833 205.6 179.585 207.401 177.72 207.768C175.856 208.141 174.014 206.893 173.687 204.986L173.592 204.566ZM165.22 162.691C163.893 156.768 162.49 150.888 160.994 145.092C160.543 143.229 161.66 141.342 163.522 140.85C165.338 140.394 167.226 141.511 167.723 143.373C169.215 149.252 170.625 155.179 171.989 161.185C171.991 161.315 172.035 161.481 172.079 161.61C172.493 163.474 171.287 165.316 169.428 165.725C167.565 166.139 165.719 164.98 165.31 163.116C165.266 162.987 165.222 162.821 165.22 162.691ZM154.219 121.668C152.308 115.963 150.267 110.306 148.056 104.777C147.305 103.002 148.169 100.994 149.982 100.289C151.757 99.5371 153.765 100.397 154.47 102.172C156.766 107.872 158.85 113.611 160.77 119.489C160.855 119.654 160.899 119.783 160.948 119.908C161.528 121.727 160.538 123.696 158.719 124.318C156.905 124.898 154.936 123.907 154.356 122.093C154.312 121.922 154.263 121.793 154.219 121.668ZM137.778 82.8503C134.937 77.628 131.889 72.5391 128.541 67.5799C127.453 65.9819 127.889 63.8083 129.487 62.7678C131.038 61.6811 133.212 62.1163 134.299 63.6674C137.775 68.8382 140.956 74.0969 143.884 79.5315C143.933 79.6557 144.018 79.7846 144.104 79.95C144.979 81.6346 144.376 83.7275 142.692 84.6443C141.007 85.5194 138.914 84.9163 137.998 83.2323C137.912 83.1034 137.869 82.9791 137.778 82.8503ZM113.636 48.6154C109.704 44.3007 105.479 40.1625 100.916 36.1545C99.4947 34.8586 99.378 32.6987 100.626 31.2365C101.88 29.8107 104.087 29.6932 105.508 30.9474C110.245 35.1194 114.688 39.4679 118.789 43.9466C118.874 44.0755 118.964 44.1575 119.091 44.2858C120.347 45.7092 120.251 47.8776 118.828 49.1706C117.405 50.4688 115.237 50.3722 113.938 48.9494C113.853 48.8257 113.727 48.7391 113.636 48.6154ZM81.7502 21.5482C76.9033 18.3519 71.757 15.3322 66.3627 12.4414C64.6506 11.5354 64.024 9.41987 64.9306 7.7494C65.7955 6.07957 67.9104 5.41136 69.6225 6.31727C75.2323 9.32981 80.5473 12.4771 85.5256 15.7547C85.6519 15.8361 85.7835 15.9226 85.9098 16.004C87.4989 17.042 87.9542 19.1967 86.8745 20.7865C85.8423 22.4173 83.6818 22.8309 82.0926 21.7929C81.9663 21.7115 81.8348 21.6302 81.7502 21.5482ZM44.3795 2.24894C38.9912 0.0820325 33.3548 -1.95602 27.4653 -3.85994C25.6275 -4.467 24.6235 -6.40482 25.2306 -8.24256C25.8383 -10.0334 27.7813 -11.0428 29.6139 -10.4304C35.6343 -8.48686 41.4379 -6.40972 46.9525 -4.16142C47.0834 -4.12177 47.209 -4.08205 47.3406 -3.99553C49.1327 -3.30442 49.9715 -1.27549 49.2752 0.516751C48.5366 2.26797 46.5135 3.14833 44.7623 2.41491C44.6314 2.37006 44.5051 2.28867 44.3795 2.24894ZM838.102 732.355C839.976 732.623 841.321 734.384 841.053 736.258C840.786 738.174 839.019 739.472 837.104 739.205C830.677 738.288 824.584 737.023 818.871 735.413C816.993 734.932 815.948 732.995 816.43 731.159C816.954 729.328 818.885 728.235 820.721 728.759C826.182 730.242 831.931 731.471 838.102 732.355Z" fill="#ffffff"></path></g></svg>