<svg xmlns="http://www.w3.org/2000/svg" width="817" height="776" viewBox="0 0 817 776" fill="none"><mask id="mask0_63_155" style="mask-type:luminance" maskUnits="userSpaceOnUse" x="0" y="0" width="817" height="776"><path d="M804.904 775.028L816.702 12.4524L11.7978 -0.000136902L0.000131938 762.575L804.904 775.028Z" fill="white"></path></mask><g mask="url(#mask0_63_155)"><path fill-rule="evenodd" clip-rule="evenodd" d="M21.414 726.178C27.0694 723.249 32.3407 719.893 37.2423 716.187C38.7866 715.023 39.0759 712.819 37.9532 711.317C36.7895 709.768 34.6271 709.479 33.0827 710.648C28.4819 714.098 23.5055 717.251 18.1959 720.054C18.0702 720.094 17.9387 720.181 17.8131 720.22C16.1009 721.126 15.475 723.2 16.3393 724.912C17.2035 726.623 19.3184 727.291 20.9889 726.385C21.1145 726.345 21.2461 726.259 21.414 726.178ZM55.7719 698.935C59.8332 694.326 63.644 689.415 67.167 684.25C68.2537 682.694 67.8602 680.521 66.3039 679.434C64.7528 678.353 62.5798 678.741 61.4931 680.298C58.0619 685.255 54.4633 689.914 50.5296 694.354C50.445 694.436 50.3596 694.565 50.2744 694.688C49.0178 696.112 49.1145 698.28 50.579 699.579C52.0025 700.83 54.1715 700.697 55.4646 699.269C55.555 699.145 55.6396 699.063 55.7719 698.935ZM80.1503 662.876C82.9938 657.523 85.7559 652.05 88.3899 646.439C89.1824 644.711 88.4483 642.663 86.7214 641.829C84.9887 641.036 82.9406 641.771 82.1065 643.497C79.5162 648.979 76.844 654.37 74.0441 659.593C73.9587 659.722 73.9151 659.847 73.8246 659.975C72.9078 661.659 73.5579 663.748 75.2417 664.67C76.9257 665.587 79.0141 664.937 79.9361 663.253C80.0214 663.129 80.065 662.999 80.1503 662.876ZM98.4641 623.873C100.842 618.305 103.226 612.695 105.605 607.086C106.351 605.311 105.533 603.303 103.763 602.551C101.993 601.805 99.9805 602.623 99.2343 604.393C96.8562 609.961 94.4722 615.576 92.0941 621.144L91.9164 621.522C91.1701 623.297 91.9881 625.304 93.7579 626.056C95.4908 626.843 97.5401 626.026 98.2863 624.256L98.4641 623.873ZM115.381 584.599C117.888 579.116 120.478 573.635 123.15 568.285C124.026 566.559 123.292 564.464 121.607 563.63C119.881 562.754 117.787 563.446 116.953 565.173C114.238 570.611 111.605 576.133 109.096 581.741C109.011 581.87 108.967 581.994 108.919 582.124C108.131 583.893 108.906 585.942 110.634 586.734C112.361 587.526 114.411 586.709 115.203 584.982C115.289 584.853 115.337 584.728 115.381 584.599ZM134.862 546.932C137.998 541.845 141.258 536.884 144.817 532.053C145.945 530.503 145.594 528.33 144.043 527.202C142.529 526.074 140.362 526.421 139.187 527.934C135.547 532.931 132.155 538.061 128.927 543.361C128.884 543.443 128.798 543.572 128.713 543.696C127.709 545.337 128.228 547.47 129.869 548.47C131.51 549.474 133.643 548.955 134.642 547.314C134.728 547.185 134.771 547.061 134.862 546.932ZM160.389 513.693C164.486 509.511 168.881 505.547 173.611 501.839C175.114 500.633 175.361 498.469 174.197 496.962C173.027 495.459 170.822 495.211 169.32 496.381C164.373 500.295 159.767 504.427 155.454 508.819C155.322 508.9 155.237 509.029 155.111 509.111C153.772 510.491 153.821 512.7 155.16 514.039C156.54 515.378 158.749 515.324 160.088 513.985C160.173 513.861 160.258 513.779 160.389 513.693ZM193.686 488.731C193.901 488.646 194.116 488.524 194.29 488.397C199.426 485.715 204.599 483.29 209.858 481.121C211.609 480.387 212.447 478.358 211.715 476.566C210.976 474.814 208.947 473.976 207.196 474.709C201.728 476.963 196.381 479.511 191.072 482.278C190.856 482.4 190.641 482.522 190.426 482.607C190.3 482.688 190.168 482.77 190.043 482.815C188.372 483.721 187.746 485.837 188.61 487.506C189.516 489.219 191.632 489.845 193.302 488.933C193.429 488.852 193.56 488.812 193.686 488.731ZM232.702 473.15C238.463 471.5 244.257 470.016 250.142 468.795C252.013 468.396 253.187 466.545 252.794 464.674C252.396 462.797 250.55 461.581 248.715 462.016C242.663 463.282 236.697 464.763 230.811 466.454C230.638 466.498 230.513 466.538 230.382 466.577C228.55 467.143 227.499 469.08 228.024 470.869C228.547 472.747 230.484 473.798 232.32 473.275C232.446 473.235 232.577 473.195 232.702 473.15ZM274.156 464.666C280.071 463.819 286.072 463.147 292.107 462.604C293.98 462.42 295.407 460.744 295.223 458.829C295.039 456.915 293.362 455.534 291.453 455.713C285.324 456.259 279.245 456.926 273.2 457.77C273.075 457.768 272.903 457.807 272.773 457.805C270.904 458.073 269.559 459.833 269.826 461.749C270.052 463.623 271.813 464.968 273.729 464.701C273.859 464.703 273.984 464.663 274.156 464.666ZM316.511 460.904C322.548 460.57 328.579 460.325 334.614 460.121C336.527 460.02 338.036 458.434 337.983 456.522C337.929 454.609 336.296 453.094 334.383 453.195C328.306 453.398 322.228 453.642 316.15 453.934L315.728 453.969C313.815 454.064 312.346 455.698 312.442 457.611C312.542 459.524 314.176 460.993 316.084 460.897L316.511 460.904ZM359.217 459.397C365.293 459.236 371.364 459.075 377.44 458.914C379.352 458.86 380.862 457.227 380.767 455.314C380.712 453.443 379.121 451.934 377.208 451.987C371.174 452.149 365.098 452.31 359.027 452.472L358.6 452.465C356.687 452.519 355.178 454.11 355.232 456.023C355.286 457.935 356.877 459.486 358.789 459.432L359.217 459.397ZM402.088 457.935C408.209 457.608 414.33 457.192 420.37 456.692C422.279 456.55 423.711 454.874 423.527 452.959C423.385 451.045 421.709 449.618 419.794 449.802C413.843 450.304 407.805 450.679 401.727 451.007L401.305 451.001C399.392 451.101 397.923 452.735 398.019 454.648C398.119 456.556 399.753 458.03 401.661 457.929L402.088 457.935ZM445.039 454.016C451.168 453.173 457.215 452.162 463.177 450.984C465.053 450.586 466.274 448.781 465.917 446.906C465.566 445.03 463.716 443.772 461.84 444.165C456.003 445.351 450.044 446.322 444.088 447.162C443.958 447.16 443.785 447.199 443.66 447.197C441.745 447.464 440.441 449.231 440.713 451.147C440.981 453.016 442.7 454.36 444.616 454.093C444.742 454.053 444.914 454.056 445.039 454.016ZM487.393 444.946C493.328 443.126 499.131 441.091 504.861 438.757C506.612 438.024 507.492 435.996 506.754 434.244C506.063 432.452 504.039 431.614 502.241 432.305C496.727 434.558 491.091 436.549 485.376 438.289C485.245 438.329 485.12 438.369 484.989 438.408C483.157 438.974 482.106 440.911 482.671 442.748C483.195 444.584 485.132 445.63 486.969 445.065C487.137 445.026 487.267 444.986 487.393 444.946ZM527.409 427.725C532.681 424.665 537.874 421.308 542.943 417.563C544.487 416.441 544.817 414.279 543.695 412.735C542.531 411.186 540.369 410.855 538.826 411.977C533.968 415.554 528.995 418.79 523.938 421.769C523.807 421.809 523.681 421.895 523.55 421.977C521.878 422.925 521.335 425.042 522.289 426.713C523.238 428.342 525.354 428.927 527.025 427.974C527.156 427.893 527.283 427.811 527.409 427.725ZM562.01 401.251C566.28 396.989 570.466 392.423 574.495 387.516C575.705 386.05 575.484 383.838 574.018 382.628C572.548 381.412 570.336 381.633 569.125 383.104C565.228 387.841 561.254 392.239 557.117 396.337C557.027 396.419 556.942 396.501 556.815 396.629C555.477 397.968 555.443 400.176 556.782 401.509C558.12 402.889 560.329 402.882 561.704 401.544C561.793 401.462 561.92 401.339 562.01 401.251ZM589.246 367.361C592.64 362.148 595.779 356.841 598.747 351.538C599.664 349.854 599.061 347.719 597.378 346.802C595.694 345.886 593.601 346.489 592.684 348.173C589.801 353.353 586.748 358.488 583.445 363.532C583.355 363.66 583.269 363.784 583.184 363.913C582.138 365.506 582.616 367.639 584.172 368.726C585.807 369.772 587.94 369.295 588.986 367.696C589.071 367.567 589.156 367.485 589.246 367.361ZM609.751 329.158C612.219 323.508 614.516 317.809 616.641 312.065C617.309 310.294 616.361 308.279 614.59 307.616C612.772 306.952 610.763 307.854 610.099 309.672C608.059 315.287 605.806 320.857 603.423 326.383C603.338 326.512 603.294 326.636 603.251 326.766C602.458 328.535 603.275 330.584 605.003 331.335C606.778 332.087 608.827 331.311 609.578 329.536C609.622 329.412 609.707 329.283 609.751 329.158ZM624.397 288.489C626.145 282.61 627.763 276.691 629.255 270.771C629.711 268.95 628.595 267.021 626.732 266.57C624.869 266.114 622.987 267.231 622.531 269.094C621.039 274.931 619.465 280.725 617.76 286.517C617.717 286.646 617.673 286.771 617.624 286.942C617.09 288.757 618.165 290.685 619.98 291.224C621.799 291.804 623.727 290.729 624.308 288.91C624.31 288.743 624.354 288.614 624.397 288.489ZM634.853 246.693C636.091 240.722 637.329 234.756 638.484 228.784C638.852 226.919 637.651 225.078 635.745 224.709C633.881 224.337 632.038 225.585 631.671 227.449C630.516 233.374 629.32 239.299 628.041 245.228L627.946 245.649C627.579 247.513 628.738 249.359 630.643 249.769C632.507 250.178 634.348 248.977 634.763 247.114L634.853 246.693ZM643.109 204.566C644.259 198.593 645.373 192.62 646.527 186.695C646.894 184.83 645.647 182.988 643.787 182.662C641.923 182.29 640.076 183.495 639.707 185.401C638.553 191.327 637.445 197.3 636.29 203.267L636.199 203.735C635.869 205.6 637.117 207.4 638.981 207.768C640.845 208.141 642.688 206.893 643.014 204.986L643.109 204.566ZM651.482 162.69C652.808 156.767 654.212 150.887 655.708 145.092C656.159 143.229 655.042 141.342 653.179 140.849C651.363 140.394 649.476 141.511 648.978 143.373C647.486 149.252 646.077 155.179 644.713 161.184C644.711 161.315 644.667 161.481 644.623 161.61C644.209 163.474 645.415 165.315 647.273 165.724C649.137 166.139 650.983 164.98 651.392 163.116C651.436 162.986 651.48 162.82 651.482 162.69ZM662.483 121.668C664.394 115.963 666.435 110.306 668.646 104.777C669.397 103.002 668.532 100.994 666.72 100.288C664.945 99.5368 662.937 100.396 662.232 102.172C659.935 107.872 657.851 113.611 655.932 119.488C655.846 119.654 655.803 119.783 655.754 119.907C655.173 121.727 656.164 123.696 657.983 124.317C659.797 124.898 661.766 123.907 662.346 122.093C662.39 121.922 662.439 121.792 662.483 121.668ZM678.924 82.85C681.765 77.6277 684.813 72.5388 688.161 67.5796C689.248 65.9817 688.813 63.808 687.214 62.7675C685.663 61.6809 683.49 62.1161 682.403 63.6672C678.927 68.838 675.746 74.0967 672.818 79.5312C672.769 79.6555 672.684 79.7844 672.598 79.9497C671.723 81.6343 672.326 83.7272 674.01 84.644C675.694 85.5191 677.787 84.916 678.704 83.2321C678.789 83.1032 678.833 82.9788 678.924 82.85ZM703.065 48.6152C706.997 44.3005 711.223 40.1623 715.786 36.1542C717.207 34.8584 717.324 32.6984 716.075 31.2362C714.821 29.8104 712.614 29.6929 711.194 30.9472C706.457 35.1192 702.014 39.4676 697.913 43.9464C697.828 44.0753 697.738 44.1573 697.611 44.2855C696.354 45.709 696.451 47.8774 697.874 49.1704C699.297 50.4686 701.465 50.3719 702.763 48.9491C702.849 48.8254 702.975 48.7388 703.065 48.6152ZM734.951 21.5479C739.798 18.3517 744.945 15.332 750.339 12.4411C752.051 11.5352 752.678 9.41963 751.771 7.74916C750.906 6.07933 748.791 5.41112 747.079 6.31703C741.469 9.32957 736.154 12.4769 731.176 15.7544C731.05 15.8358 730.918 15.9224 730.792 16.0037C729.203 17.0418 728.747 19.1965 729.827 20.7863C730.859 22.417 733.02 22.8307 734.609 21.7926C734.735 21.7113 734.867 21.63 734.951 21.5479ZM772.322 2.2487C777.71 0.0817884 783.347 -1.95627 789.236 -3.86018C791.074 -4.46724 792.078 -6.40507 791.471 -8.2428C790.863 -10.0337 788.92 -11.043 787.088 -10.4307C781.067 -8.4871 775.264 -6.40996 769.749 -4.16167C769.618 -4.12202 769.493 -4.08229 769.361 -3.99577C767.569 -3.30466 766.73 -1.27573 767.426 0.516507C768.165 2.26773 770.188 3.14808 771.939 2.41467C772.07 2.36981 772.197 2.28842 772.322 2.2487ZM-21.4002 732.355C-23.2743 732.623 -24.6194 734.383 -24.3515 736.258C-24.0843 738.173 -22.3177 739.472 -20.4019 739.204C-13.9754 738.288 -7.88223 737.023 -2.16915 735.413C-0.291684 734.932 0.754033 732.994 0.271956 731.159C-0.251862 729.327 -2.18311 728.235 -4.01956 728.759C-9.48066 730.242 -15.2295 731.471 -21.4002 732.355Z" fill="#ffffff"></path></g></svg>