<svg xmlns="http://www.w3.org/2000/svg" width="946" height="1051" viewBox="0 0 946 1051" fill="none"><mask id="mask0_63_140" style="mask-type:luminance" maskUnits="userSpaceOnUse" x="0" y="0" width="946" height="1051"><path d="M516.235 1050.72L-5.3303e-05 292.533L429.639 -0.000175807L945.874 758.187L516.235 1050.72Z" fill="white"></path></mask><g mask="url(#mask0_63_140)"><path d="M515.273 544.138L515.437 534.917C528.632 535.043 541.887 536.237 554.904 538.714L553.16 547.9C540.657 545.526 527.908 544.422 515.273 544.138ZM607.434 569.84L612.708 562.25C601.625 554.457 589.345 548.821 576.819 544.455L573.955 553.301C585.76 557.261 597.275 562.752 607.434 569.84ZM645.361 613.797L653.675 609.691C647.644 597.571 639.692 586.544 630.276 576.958L623.616 583.492C632.515 592.319 639.95 602.587 645.361 613.797ZM653.865 670.012L662.899 671.859C665.722 658.384 664.92 644.48 661.583 631.421L652.691 633.699C655.711 645.64 656.245 658.171 653.865 670.012ZM620.773 714.095L625.186 722.208C637.143 715.621 647.695 705.993 654.71 694.107L646.612 689.392C640.804 699.789 631.416 708.19 620.773 714.095ZM565.413 720.905L562.545 729.746C575.985 734.148 590.145 734.06 603.468 730.774L601.339 721.773C589.446 724.538 576.86 724.665 565.413 720.905ZM542.121 704.318C541.294 703.103 540.464 701.883 539.788 700.565L538.548 698.744L537.611 696.715C534.911 691.444 533.377 685.601 532.505 679.752L523.292 680.906C524.23 687.83 525.977 694.639 529.298 700.821L530.441 703.153L531.736 705.381C532.77 706.899 533.552 708.375 534.586 709.893C536.702 712.674 538.969 715.351 541.692 717.719L547.89 710.832C545.884 708.865 543.927 706.643 542.121 704.318ZM538.449 641.481C539.536 638.51 541.09 635.897 542.54 633.132L544.998 629.237L546.151 627.341L547.559 625.493L540.121 620.116L538.664 622.218L537.311 624.473C536.51 625.907 535.454 627.293 534.653 628.727C533.154 631.747 531.4 634.718 530.157 637.787C527.257 643.982 525.491 650.526 524.183 657.415L533.266 659.007C534.277 652.987 536.059 647.107 538.449 641.481ZM577.31 599.683C579.994 598.077 582.884 596.776 585.672 595.322C588.562 594.02 591.453 592.719 594.296 591.672L590.901 583.097C587.755 584.35 584.712 585.755 581.566 587.008C578.627 588.565 575.585 589.97 572.749 591.679C566.974 594.945 561.357 598.769 556.05 603.049L561.977 610.122C566.78 606.407 571.838 602.741 577.31 599.683ZM652.456 579.186L651.552 570.026C638.625 571.273 625.447 573.128 612.54 576.361L614.666 585.357C627.017 582.287 639.682 580.329 652.456 579.186ZM712.616 578.447L713.443 569.219C700.394 568.328 687.239 567.945 674.051 568.481L674.397 577.8C687.078 577.172 699.823 577.604 712.616 578.447ZM743.682 582.631L748.427 583.4L753.123 584.424C756.289 585.157 759.351 585.738 762.368 586.58L771.512 589.241L774.38 580.401L764.874 577.534C761.605 576.649 758.44 575.916 755.274 575.183L750.475 574.007L745.626 573.087C742.413 572.609 739.247 571.876 735.882 571.501L734.545 580.632C737.455 581.317 740.62 582.05 743.682 582.631ZM808.957 605.079C811.722 606.53 814.439 608.235 817.155 609.94C819.92 611.39 822.592 613.357 825.162 615.161L830.436 607.571C827.764 605.605 824.944 603.748 822.076 602.146C819.208 600.544 816.388 598.687 813.52 597.085C807.475 594.091 801.734 590.882 795.701 588.547L792.116 596.986C797.643 599.23 803.276 602.282 808.957 605.079ZM848.741 635.108C849.872 636.116 850.954 637.379 851.932 638.49C852.911 639.601 854.145 640.76 854.972 641.975C859.093 646.723 862.611 651.89 865.822 657.258L873.722 652.545C870.153 646.977 866.325 641.354 862.149 636.199C861.066 634.937 859.984 633.674 858.902 632.411C857.82 631.148 856.738 629.885 855.504 628.726L848.353 621.811L842.155 628.698L848.741 635.108ZM884.756 712.814L893.97 711.65C892.261 698.372 888.92 685.308 884.011 672.876L875.435 676.271C880.083 687.992 883.314 700.243 884.756 712.814ZM885.009 743.533C884.683 746.643 884.357 749.754 883.52 752.767C882.939 755.829 882.102 758.843 881.521 761.905C880.684 764.918 879.852 767.937 878.657 770.751L887.297 773.977C888.54 770.909 889.425 767.64 890.31 764.371C891.195 761.103 891.924 757.932 892.451 754.463C893.081 751.146 893.455 747.78 893.933 744.566C894.156 741.304 894.53 737.938 894.65 734.524L885.325 734.208C885.661 737.312 885.335 740.422 885.009 743.533ZM858.151 804.265C853.761 808.586 849.056 812.456 843.998 816.123L849.018 823.822C854.635 819.997 859.844 815.562 864.585 810.778C869.371 805.734 873.699 800.343 877.414 794.704L869.623 789.788C866.261 794.966 862.437 799.791 858.151 804.265ZM53.3519 264.838C52.2667 268.465 52.2022 272.286 52.1861 275.852C52.4252 279.467 52.9195 283.129 54.2315 286.688L63.1169 283.748C62.1738 281.058 61.7893 278.209 61.5044 275.506C61.527 272.603 61.5011 269.954 62.3925 267.348C63.6706 262.034 67.0942 257.925 71.6064 255.742L67.6528 247.325C60.5535 250.603 55.1153 257.639 53.3519 264.838ZM89.8425 312.884C96.9862 313.574 103.856 312.896 110.517 311.258L108.388 302.257C96.5984 305.173 84.0058 304.638 74.3154 298.564L69.5068 306.512C75.5533 310.171 82.8077 312.342 89.8425 312.884ZM164.927 280.876L159.604 273.383C149.032 281.026 138.82 288.868 128.029 294.882L132.441 302.995C144.143 296.36 154.66 288.311 164.927 280.876ZM187.261 267.002L189.441 265.962L191.47 265.026L195.782 263.201L200.148 261.782C201.57 261.259 203.094 260.888 204.515 260.364L208.985 259.098C211.986 258.61 214.932 257.716 218.036 257.38L216.724 248.275C213.365 248.562 210.012 249.512 206.86 250.103L201.983 251.424C200.306 251.899 198.782 252.27 197.209 252.897L192.387 254.625L187.771 256.657L185.332 257.643L183 258.786L178.488 260.97L182.901 269.082L187.261 267.002ZM257.538 259.597C260.4 260.537 263.413 261.373 266.227 262.568C269.088 263.508 271.853 264.958 274.627 266.41L279.078 258.262C276.058 256.763 272.934 255.113 269.714 253.973C266.542 252.578 263.273 251.693 259.999 250.812C253.462 249.042 246.672 247.88 239.996 247.538L239.428 256.82C245.49 256.913 251.614 258.076 257.538 259.597ZM294.392 282.059L295.939 283.679L297.18 285.501L299.916 289.193L302.196 293.195L303.284 295.12L304.221 297.148L306.198 301.357L307.768 305.62L308.557 307.757L309.19 309.993L318.13 307.46L317.545 304.97L316.706 302.431L314.974 297.603L311.543 290.607L307.658 283.921L304.612 279.774L303.013 277.752L301.258 275.828C300.176 274.565 298.991 273.151 297.757 271.991L291.097 278.525L294.392 282.059ZM309.412 348.509L308.078 352.75C307.684 354.129 306.883 355.563 306.233 356.894C305.038 359.707 303.278 362.017 301.725 364.63L309.315 369.904C311.069 366.932 313.181 364.161 314.473 360.837C315.171 359.252 316.123 357.714 316.566 356.08L318.3 351.122C320.222 344.481 321.275 337.543 321.264 330.663L312.033 330.497C312.047 336.717 311.036 342.737 309.412 348.509ZM253.31 394.04L255.842 402.98C268.448 399.293 281.239 394.583 292.52 386.68L287.197 379.187C277.178 386.009 265.353 390.505 253.31 394.04ZM193.801 408.777L196.641 417.516C208.728 413.73 221.13 411.062 233.837 408.187L231.863 399.088C219.26 402.115 206.598 404.729 193.801 408.777ZM156.006 430.289C151.216 435.328 147.095 441.022 144.256 447.621L152.651 451.467C157.482 440.615 166.413 431.868 177.058 425.954L172.497 417.95C166.613 421.068 161.051 425.299 156.006 430.289ZM148.596 510.448L156.807 506.19C151.351 495.241 147.972 483.1 148.259 471.121L138.934 470.805C138.663 484.764 142.569 498.332 148.596 510.448ZM168.478 537.364C171.098 539.579 173.565 541.898 176.082 543.962C178.75 545.923 181.369 548.138 184.189 549.996C187.012 551.858 189.68 553.819 192.549 555.421L197.361 547.478C194.592 546.023 192.18 544.111 189.463 542.405C186.899 540.596 184.486 538.684 182.073 536.772C179.66 534.86 177.448 532.59 175.035 530.678C172.818 528.401 170.709 526.283 168.649 523.909L161.575 529.836C163.587 532.465 166.059 534.79 168.478 537.364ZM251.59 575.892L253.075 566.652C240.627 564.686 228.421 561.443 216.605 556.816L213.123 565.407C225.401 570.387 238.372 573.775 251.59 575.892ZM313.556 577.479L312.651 568.319C299.976 569.609 287.244 569.835 274.554 569.144L273.976 578.424C287.231 578.953 300.374 578.677 313.556 577.479ZM374.184 567.312L372.21 558.213C359.646 560.983 346.988 563.602 334.324 565.56L335.739 574.817C348.71 572.658 361.624 570.087 374.184 567.312ZM433.705 553.899L431.728 544.795C418.918 547.518 406.315 550.544 393.76 553.316L395.886 562.311C408.592 559.436 421.199 556.415 433.705 553.899ZM493.326 544.862L492.569 535.593C479.436 536.537 466.413 538.294 453.591 540.359L455.158 549.512C467.98 547.448 480.596 545.745 493.326 544.862Z" fill="#ffffff"></path></g></svg>