<svg xmlns="http://www.w3.org/2000/svg" width="872" height="522" viewBox="0 0 872 522" fill="none"><mask id="mask0_63_145" style="mask-type:luminance" maskUnits="userSpaceOnUse" x="0" y="0" width="872" height="522"><path d="M0 120.749L812.039 6.61689e-05L871.592 400.491L59.5523 521.24L0 120.749Z" fill="white"></path></mask><g mask="url(#mask0_63_145)"><path d="M401.656 393.682L403.972 400.38C399.06 401.867 394.105 403.065 388.895 403.692C383.849 404.286 378.549 404.308 373.505 403.83L374.451 396.804C378.983 397.201 383.637 397.275 388.193 396.755C392.892 396.056 397.389 395.073 401.656 393.682ZM427.389 379.592C423.837 382.419 420.095 385.116 416.131 387.395L420.006 393.399C424.438 390.904 428.48 388.004 432.334 384.986C436.175 381.812 439.638 378.389 443.079 374.813L437.3 370.467C434.115 373.544 430.93 376.62 427.389 379.592ZM446.374 357.941L452.855 361.417C455.405 357.364 457.577 353.063 459.403 348.657C461.24 344.249 462.878 339.723 463.858 335.138L456.53 333.773C454.636 342.167 451.041 350.362 446.374 357.941ZM463.311 298.015C462.653 295.815 461.831 293.648 461.151 291.294L454.058 293.733C454.693 295.78 455.494 297.802 456.128 299.849L457.566 306.216C458.356 310.39 458.813 314.605 458.635 318.923L466.241 318.863C466.363 314.101 465.995 309.402 464.981 304.809L463.311 298.015ZM440.016 269.49C441.419 271.118 442.7 273.069 443.959 274.875C444.604 275.85 445.384 276.647 445.841 277.502L447.421 280.322L454.036 276.893L452.253 273.789C451.608 272.815 450.963 271.84 450.161 270.889C448.714 268.963 447.432 267.003 446.007 265.23L441.386 259.789C439.805 258.04 438.079 256.46 436.33 254.726L430.93 259.664C432.499 261.267 434.203 262.694 435.596 264.323L440.016 269.49ZM419.26 241.344L417.623 240.36L411.443 236.691C407.134 234.425 402.823 232.149 398.247 230.384L395.063 236.829C399.45 238.475 403.437 240.789 407.546 242.781L413.38 246.353L414.828 247.208L416.309 248.215L419.093 250.247L423.725 244.658L420.785 242.649L419.26 241.344ZM336.223 226.593L336.011 219.583C325.967 220.006 316.235 221.453 306.437 223.528L307.951 230.345C317.426 228.318 326.825 226.92 336.223 226.593ZM289.989 227.654C280.49 230.598 271.26 234.269 262.418 238.334L265.669 244.588C274.366 240.692 283.13 237.248 292.306 234.351L289.989 227.654ZM222.797 261.522L227.274 267.132C234.914 261.713 242.952 256.688 251.216 252.1L247.496 246.063C238.911 250.708 230.549 255.782 222.797 261.522ZM198.479 280.754L188.012 290.58L193.356 295.295L203.523 285.671C207.031 282.546 210.75 279.695 214.281 276.724L209.368 271.483C205.851 274.609 202.153 277.605 198.479 280.754ZM171.82 307.533L167.155 312.971L162.5 318.407C161.799 319.277 160.941 320.171 160.261 321.186L158.024 323.974L164.083 327.974L166.163 325.209C166.855 324.34 167.722 323.445 168.423 322.575L172.935 317.317L177.455 312.049C179.014 310.285 180.596 308.674 182.164 306.909L176.52 302.395C174.96 304.15 173.213 305.794 171.82 307.533ZM140.297 348.502C138.926 350.386 137.735 352.399 136.377 354.438L132.624 360.358L139.105 363.834L142.857 357.914C144.049 355.9 145.263 354.039 146.643 352.145L154.55 340.716L148.348 336.894L140.297 348.502ZM110.932 398.333L117.836 401.284C122.089 393.148 126.345 385.021 131.132 377.11L124.539 373.956C119.606 382.036 115.353 390.172 110.932 398.333ZM98.0046 425.055C95.9661 429.179 94.1182 433.441 92.2689 437.694L99.2616 440.17C101.111 435.917 102.982 431.809 104.863 427.708C106.901 423.575 108.583 419.347 110.81 415.343L103.928 412.536C101.891 416.669 100.042 420.922 98.0046 425.055ZM80.7449 464.973L75.5117 477.694L82.648 479.993L87.7161 467.305L92.9721 454.738L85.978 452.252L80.7449 464.973ZM59.7993 517.991L66.9142 520.145L76.848 494.487L69.7201 492.178L59.7993 517.991ZM804.021 1.19267L800.991 14.1953C799.811 18.5056 798.275 22.7119 796.938 27.0455L804.188 29.0317C805.513 24.5521 807.016 20.1938 808.34 15.7052L811.637 2.2106L804.021 1.19267ZM785.335 53.7274C783.275 57.7071 780.869 61.5812 778.644 65.5947L785.268 68.8921C787.462 64.7357 790.012 60.6832 792.207 56.5358C794.221 52.2491 796.26 48.125 798.274 43.8383L791.281 41.3617C789.401 45.4716 787.362 49.5957 785.335 53.7274ZM761.873 89.8239C760.492 91.709 758.912 93.3284 757.352 95.0833L752.832 100.352L758.611 104.698L763.276 99.2601C764.835 97.4962 766.394 95.7323 767.775 93.8472C770.682 90.0461 773.599 86.2436 776.349 82.4659L770.012 78.8119C767.563 82.3972 764.624 86.0462 761.873 89.8239ZM731.752 121.244C730.004 122.879 728.221 124.215 726.285 125.73L720.806 130.07L725.583 135.479L731.207 130.97C733.143 129.454 735.071 127.949 736.808 126.307C740.304 123.036 743.979 119.887 747.464 116.609L742.12 111.894C738.612 115.018 735.103 118.143 731.752 121.244ZM701.731 143.308L695.651 146.972C693.681 148.188 691.542 149.42 689.549 150.482L683.257 153.864L686.832 160.07L693.28 156.665C695.44 155.578 697.577 154.337 699.715 153.105L705.93 149.274C708.067 148.033 710.205 146.802 712.132 145.288L707.812 139.654C705.863 141.014 703.703 142.102 701.731 143.308ZM641.634 170.316L643.794 177.037C653.314 174.237 662.591 170.873 671.655 167.227L668.715 160.779C659.639 164.418 650.674 167.587 641.634 170.316ZM611.513 177.241C606.836 178.093 602.002 178.96 597.303 179.658L598.327 186.548C603.183 185.826 608.027 184.958 612.87 184.081C617.682 183.061 622.525 182.184 627.323 181.009L625.643 174.217C621.034 175.521 616.199 176.387 611.513 177.241ZM552.529 191.679C562.182 190.852 571.971 189.858 581.747 188.709L580.879 181.796C571.28 182.919 561.648 183.89 551.994 184.716L552.529 191.679ZM506.862 195.405C516.516 194.579 526.171 193.761 535.847 193.089L535.302 186.127C525.647 186.945 515.981 187.616 506.161 188.467L506.862 195.405ZM460.438 194.039L461.619 200.905C471.163 199.338 480.749 198.06 490.381 197.09L489.68 190.152C479.891 191.146 470.138 192.448 460.438 194.039ZM445.528 204.064L444.014 197.247C434.382 199.297 424.806 201.792 415.474 204.712L417.791 211.409C426.81 208.536 436.053 206.091 445.528 204.064ZM398.872 217.896L402.168 216.64L399.383 210.159L395.931 211.439L392.491 212.873L385.631 215.73L378.995 219.015C377.925 219.626 376.835 220.102 375.744 220.569L372.847 222.218L367.903 221.273C365.498 220.708 363.004 220.627 360.455 220.24C357.937 219.996 355.554 219.584 353.06 219.503L352.437 226.48C354.775 226.594 357.135 226.852 359.496 227.12C361.847 227.379 364.185 227.493 366.423 228.074L373.248 229.357L379.963 231.109L382.057 225.14C382.224 225.115 382.358 224.939 382.524 224.914L388.86 221.83L395.397 219.022L398.872 217.896ZM354.241 243.056L357.079 240.945C359.028 239.584 360.788 238.095 362.77 236.887L358.45 231.253C356.501 232.614 354.574 234.128 352.459 235.513L349.463 237.638C348.572 238.38 347.527 239.154 346.669 240.047L341.089 244.855L335.878 249.912L341.38 254.613L346.29 249.748L351.591 245.287C352.47 244.538 353.194 243.821 354.241 243.056ZM331.035 266.405L324.82 262.429C319.008 270.178 314.498 278.814 311.346 287.7L318.44 289.709C321.703 281.573 325.655 273.629 331.035 266.405ZM314.654 304.356L307.205 303.323C305.579 312.443 304.989 321.862 305.868 331.072L313.385 330.415C312.606 321.809 313.117 313.002 314.654 304.356ZM315.89 345.041L308.551 346.898C309.722 351.477 311.369 355.819 313.173 360.147C315.133 364.443 317.404 368.545 319.988 372.6L326.379 368.742C324.019 365.115 321.958 361.287 320.055 357.435C318.619 353.366 317.026 349.311 315.89 345.041ZM336.168 379.996L330.79 385.078C334.431 388.367 338.349 391.3 342.705 393.874C347.036 396.285 351.513 398.535 356.389 400.099L359.039 393.429C354.698 392.09 350.755 390.074 346.79 387.904C342.96 385.566 339.431 383.027 336.168 379.996Z" fill="#ffffff"></path></g></svg>